<?xml version="1.0" standalone="no"?>
<!DOCTYPE svg PUBLIC "-//W3C//DTD SVG 20010904//EN"
 "http://www.w3.org/TR/2001/REC-SVG-20010904/DTD/svg10.dtd">
<svg version="1.0" xmlns="http://www.w3.org/2000/svg"
 width="700.000000pt" height="700.000000pt" viewBox="0 0 700.000000 700.000000"
 preserveAspectRatio="xMidYMid meet">
<metadata>
Created by potrace 1.11, written by Peter Selinger 2001-2013
</metadata>
<g transform="translate(0.000000,700.000000) scale(0.100000,-0.100000)"
fill="#000000" stroke="none">
<path d="M3215 6989 c-748 -64 -1435 -351 -1995 -835 -551 -475 -938 -1101
-1114 -1799 -34 -137 -72 -346 -88 -490 -17 -155 -17 -575 0 -730 63 -569 254
-1098 567 -1570 267 -402 644 -771 1047 -1024 457 -287 945 -457 1503 -523
144 -17 586 -17 730 0 839 99 1556 447 2131 1034 204 208 346 389 490 623 269
439 429 910 496 1460 16 130 16 600 0 730 -73 596 -246 1079 -557 1555 -139
213 -239 336 -449 548 -656 667 -1555 1038 -2496 1031 -91 -1 -210 -6 -265
-10z m2355 -1496 c0 -5 -194 -404 -432 -888 -237 -483 -431 -885 -431 -891 0
-7 -272 -284 -604 -616 l-603 -603 0 1060 0 1060 307 307 c170 170 311 308
315 308 4 0 9 -328 10 -728 l3 -729 204 431 c112 237 294 623 405 858 l201
427 250 3 c138 2 278 4 313 6 34 1 62 -1 62 -5z"/>
</g>
</svg>
