<svg xmlns="http://www.w3.org/2000/svg" xmlns:xlink="http://www.w3.org/1999/xlink" viewBox="0 0 400.7 400.7"><defs><style>.cls-1{fill:url(#linear-gradient);}.cls-2{fill:url(#linear-gradient-2);}.cls-3{fill:url(#linear-gradient-3);}.cls-4{fill:url(#linear-gradient-4);}.cls-5{fill:url(#linear-gradient-5);}.cls-6{fill:url(#linear-gradient-6);}</style><linearGradient id="linear-gradient" x1="104.27" y1="400.61" x2="381.75" y2="111.55" gradientUnits="userSpaceOnUse"><stop offset="0" stop-color="#b0ffd9"/><stop offset="0.51" stop-color="#ccffe5"/></linearGradient><linearGradient id="linear-gradient-2" x1="120.96" y1="398.51" x2="373.19" y2="87.17" gradientUnits="userSpaceOnUse"><stop offset="0.22" stop-color="#92ccae"/><stop offset="0.55" stop-color="#a5e5c2"/></linearGradient><linearGradient id="linear-gradient-3" x1="400.7" y1="400.7" x2="400.7" y2="400.7" gradientUnits="userSpaceOnUse"><stop offset="0" stop-color="#a3c1cc"/><stop offset="1" stop-color="#b7dbe5"/></linearGradient><linearGradient id="linear-gradient-4" x1="131.78" y1="5.12" x2="366.19" y2="330.09" gradientUnits="userSpaceOnUse"><stop offset="0.24" stop-color="#a3c1cc"/><stop offset="0.66" stop-color="#b7dbe5"/></linearGradient><linearGradient id="linear-gradient-5" x1="114.25" y1="-47.69" x2="315.87" y2="298.58" gradientUnits="userSpaceOnUse"><stop offset="0.13" stop-color="#caedff"/><stop offset="0.71" stop-color="#dcf5ff"/></linearGradient><linearGradient id="linear-gradient-6" x1="400.7" y1="100.17" x2="400.7" y2="100.17" gradientUnits="userSpaceOnUse"><stop offset="0" stop-color="#caedff"/><stop offset="1" stop-color="#dcf5ff"/></linearGradient></defs><g id="Layer_2" data-name="Layer 2"><g id="Layer_1-2" data-name="Layer 1"><polygon class="cls-1" points="0 200.35 0 200.35 0 400.7 400.69 400.7 0 200.35"/><polygon class="cls-2" points="0 200.35 400.7 400.7 400.7 400.7 400.7 200.35 0 200.35"/><polygon class="cls-3" points="400.7 400.7 400.7 400.7 400.69 400.7 400.7 400.7"/><polygon class="cls-4" points="0 200.35 400.7 200.35 400.7 0 400.7 0 0 200.35"/><polygon class="cls-5" points="0 200.35 400.7 0 0 0 0 200.35"/><polygon class="cls-6" points="400.7 0 400.7 0 400.7 200.35 400.7 200.35 400.7 0 400.7 0"/></g></g></svg>