<svg xmlns="http://www.w3.org/2000/svg" viewBox="0 0 647.3 647.3"><defs><style>.cls-1{fill:#fff;}.cls-2{fill:#86007d;}.cls-3{fill:#0000f9;}.cls-4{fill:#008018;}.cls-5{fill:#ffff41;}.cls-6{fill:#ffa52c;}.cls-7{fill:#ff0018;}</style></defs><g id="Layer_2" data-name="Layer 2"><g id="Layer_1-2" data-name="Layer 1"><path class="cls-1" d="M399.54,361.07,381.62,394.8V508.11h-58V139.19h58V299.93l75.9-160.74h58L434.85,303.62l80.64,204.49H455.93Z"/><path class="cls-1" d="M399.54,351.07,381.62,384.8V498.11h-58V129.19h58V289.93l75.9-160.74h58L434.85,293.62l80.64,204.49H455.93Z"/><polygon class="cls-2" points="515.49 508.11 490.58 444.95 448.03 487.5 455.93 508.11 515.49 508.11"/><polygon class="cls-3" points="420.94 416.86 448.03 487.5 490.58 444.95 462.94 374.85 420.94 416.86"/><polygon class="cls-3" points="381.62 456.17 329.68 508.11 381.62 508.11 381.62 456.17"/><polygon class="cls-4" points="323.65 416.4 323.65 508.11 329.68 508.11 381.62 456.17 381.62 394.8 399.54 361.07 420.94 416.86 462.94 374.85 435.3 304.75 323.65 416.4"/><polygon class="cls-5" points="515.49 139.19 503.13 139.19 416.72 225.6 381.62 299.93 381.62 260.69 323.65 318.67 323.65 416.4 435.3 304.75 434.85 303.62 515.49 139.19"/><polygon class="cls-6" points="381.62 162.96 323.65 220.93 323.65 318.67 381.62 260.69 381.62 162.96"/><polygon class="cls-6" points="416.72 225.6 503.13 139.19 457.51 139.19 416.72 225.6"/><polygon class="cls-7" points="381.62 139.19 323.65 139.19 323.65 220.93 381.62 162.96 381.62 139.19"/><path d="M323.65,0C144.9,0,0,144.9,0,323.65S144.9,647.3,323.65,647.3,647.3,502.39,647.3,323.65,502.39,0,323.65,0ZM515.49,508.11H455.93l-56.39-147L381.62,394.8V508.11h-58V139.19h58V299.93l75.9-160.74h58L434.85,303.62Z"/></g></g></svg>